<svg height="512pt" viewBox="-5 0 512 512.0002" width="512pt" xmlns="http://www.w3.org/2000/svg"><path d="m478.675781 62.898438 22.78125-57.398438-61.546875-5.058594c-44.65625-3.683594-86.378906 15.953125-111.992187 50.5-28.285157-11.351562-58.105469-17.175781-88.800781-17.175781-131.847657 0-239.117188 107.269531-239.117188 239.117187 0 131.847657 107.269531 239.117188 239.117188 239.117188 131.851562 0 239.117187-107.269531 239.117187-239.117188 0-53.953124-18.449219-106.007812-51.800781-148.148437 23.078125-13.925781 41.683594-35.226563 52.242187-61.835937zm-19.570312 209.984374c0 121.300782-98.679688 219.988282-219.988281 219.988282-121.308594 0-219.988282-98.691406-219.988282-219.988282 0-121.300781 98.679688-219.988281 219.988282-219.988281 27.058593 0 53.410156 4.859375 78.46875 14.460938-.046876.09375-.085938.191406-.132813.285156-2.09375 3.996094-4.074219 8.09375-5.777344 12.367187l-15.5625 39.214844c-13.449219-6.503906-25.765625-8.664062-26.753906-8.816406-5.210937-.863281-10.117187 2.667969-10.96875 7.859375-.871094 5.203125 2.648437 10.128906 7.851563 11.011719.125.015625 4.6875.839844 10.867187 2.859375-3.75 3.097656-7.355469 6.367187-10.628906 9.964843-3.554688 3.902344-3.269531 9.957032.632812 13.515626 1.828125 1.664062 4.140625 2.488281 6.4375 2.488281 2.59375 0 5.183594-1.050781 7.066407-3.128907 4.71875-5.175781 10.121093-9.699218 15.976562-13.542968 5.976562 4.113281 11.246094 9.46875 13.984375 16.375 1.492187 3.757812 5.085937 6.042968 8.894531 6.042968 1.175782 0 2.371094-.21875 3.527344-.679687 4.90625-1.949219 7.308594-7.503906 5.367188-12.414063-1.539063-3.871093-3.550782-7.371093-5.863282-10.578124l27.945313 2.304687c3.578125.296875 7.125.441406 10.664062.441406 1.082031 0 2.152344-.097656 3.234375-.125.707032-.019531 1.402344-.046875 2.113282-.074219 14.941406-.625 29.34375-3.808593 42.714843-9.289062 32.246094 39.28125 49.929688 88.511719 49.929688 139.445312zm-46.925781-162.085937-4.609376 2.230469c-12.75 6.148437-26.492187 9.679687-40.449218 10.511718-.667969.039063-1.339844.054688-2.007813.074219-4.351562.179688-8.722656.164063-13.085937-.191406l-24.234375-2c44.933593-41.375 91.847656-57.003906 101.691406-59.003906 2.753906.304687 5.597656-.640625 7.710937-2.753907 2.445313-2.441406 3.433594-6.144531 2.503907-9.46875-.925781-3.328124-3.699219-5.96875-7.058594-6.78125-7-1.636718-57.839844 13.273438-107.6875 55.082032l4.535156-11.410156c2.550781-6.425782 5.917969-12.867188 10.003907-19.128907l2.832031-4.335937c21.664062-30.097656 57.605469-47.238282 96.039062-44.109375l35.800781 2.945312-13.257812 33.390625c-9.632812 24.226563-27.117188 43.261719-48.726562 54.949219zm0 0"/><path d="m389.980469 186.484375c0 10.566406-8.5625 19.128906-19.128907 19.128906-10.566406 0-19.128906-8.5625-19.128906-19.128906s8.5625-19.128906 19.128906-19.128906c10.566407 0 19.128907 8.5625 19.128907 19.128906zm0 0"/><path d="m440.855469 293.179688c0 10.566406-8.5625 19.128906-19.128907 19.128906-10.566406 0-19.128906-8.5625-19.128906-19.128906 0-10.566407 8.5625-19.128907 19.128906-19.128907 10.566407 0 19.128907 8.5625 19.128907 19.128907zm0 0"/><path d="m437.804688 234.308594c0 10.5625-8.5625 19.128906-19.128907 19.128906-10.566406 0-19.128906-8.566406-19.128906-19.128906 0-10.566406 8.5625-19.132813 19.128906-19.132813 10.566407 0 19.128907 8.566407 19.128907 19.132813zm0 0"/><path d="m379.988281 272.882812c0 10.566407-8.566406 19.128907-19.132812 19.128907-10.5625 0-19.128907-8.5625-19.128907-19.128907 0-10.566406 8.566407-19.128906 19.128907-19.128906 10.566406 0 19.132812 8.5625 19.132812 19.128906zm0 0"/><path d="m389.980469 339.519531c0 10.566407-8.5625 19.128907-19.128907 19.128907-10.566406 0-19.128906-8.5625-19.128906-19.128907 0-10.566406 8.5625-19.128906 19.128906-19.128906 10.566407 0 19.128907 8.5625 19.128907 19.128906zm0 0"/><path d="m217.816406 109.964844c0 10.566406-8.5625 19.132812-19.128906 19.132812s-19.128906-8.566406-19.128906-19.132812c0-10.5625 8.5625-19.128906 19.128906-19.128906s19.128906 8.566406 19.128906 19.128906zm0 0"/><path d="m150.863281 138.660156c0 10.566406-8.5625 19.132813-19.128906 19.132813s-19.128906-8.566407-19.128906-19.132813c0-10.5625 8.5625-19.128906 19.128906-19.128906s19.128906 8.566406 19.128906 19.128906zm0 0"/></svg>