<?xml version="1.0" encoding="iso-8859-1"?>
<!-- Generator: Adobe Illustrator 18.0.0, SVG Export Plug-In . SVG Version: 6.00 Build 0)  -->
<!DOCTYPE svg PUBLIC "-//W3C//DTD SVG 1.1//EN" "http://www.w3.org/Graphics/SVG/1.1/DTD/svg11.dtd">
<svg version="1.1" id="Capa_1" xmlns="http://www.w3.org/2000/svg" xmlns:xlink="http://www.w3.org/1999/xlink" x="0px" y="0px"
	 viewBox="0 0 53.531 53.531" style="enable-background:new 0 0 53.531 53.531;" xml:space="preserve">
<g>
	<path d="M38.284,16.942c-0.417,0-0.838-0.017-1.258-0.052L27.9,16.14l3.378-8.511c0.427-1.074,0.969-2.073,1.599-2.997
		c-2.365-0.727-4.817-1.101-7.325-1.101c-13.785,0-25,11.215-25,25s11.215,25,25,25s25-11.215,25-25c0-4.968-1.501-9.78-4.236-13.87
		C43.961,16.119,41.203,16.942,38.284,16.942z M15.738,15.912c-0.781,0.781-2.047,0.781-2.828,0c-0.781-0.781-0.781-2.047,0-2.828
		c0.781-0.781,2.047-0.781,2.828,0C16.519,13.865,16.519,15.131,15.738,15.912z M22.738,12.912c-0.781,0.781-2.047,0.781-2.828,0
		c-0.781-0.781-0.781-2.047,0-2.828c0.781-0.781,2.047-0.781,2.828,0C23.519,10.865,23.519,12.131,22.738,12.912z M36.865,27.117
		c0.781-0.781,2.047-0.781,2.828,0c0.781,0.781,0.781,2.047,0,2.828c-0.781,0.781-2.047,0.781-2.828,0
		C36.084,29.164,36.084,27.898,36.865,27.117z M40.738,36.912c-0.781,0.781-2.047,0.781-2.828,0c-0.781-0.781-0.781-2.047,0-2.828
		c0.781-0.781,2.047-0.781,2.828,0C41.519,34.865,41.519,36.131,40.738,36.912z M40.738,20.912c-0.781,0.781-2.047,0.781-2.828,0
		c-0.781-0.781-0.781-2.047,0-2.828c0.781-0.781,2.047-0.781,2.828,0C41.519,18.865,41.519,20.131,40.738,20.912z M46.058,32.067
		c-0.781,0.781-2.047,0.781-2.828,0c-0.781-0.781-0.781-2.047,0-2.828c0.781-0.781,2.047-0.781,2.828,0
		C46.839,30.019,46.839,31.286,46.058,32.067z M45.738,25.912c-0.781,0.781-2.047,0.781-2.828,0c-0.781-0.781-0.781-2.047,0-2.828
		c0.781-0.781,2.047-0.781,2.828,0C46.519,23.865,46.519,25.131,45.738,25.912z"/>
	<path d="M46.545,0.047c-5.876-0.49-11.256,2.901-13.407,8.32l-2.141,5.394l0.813-0.9c5.923-6.35,13.112-8.522,13.973-8.322
		l0.568,0.138l0.328,1.135l-0.42,0.426c-0.221,0.221-0.518,0.32-0.806,0.288c-1.143,0.233-7.061,2.208-12.17,7.687l-0.305,0.337
		l4.213,0.347c0.365,0.03,0.73,0.045,1.093,0.045c5.463,0,10.296-3.283,12.313-8.365l2.382-6.001L46.545,0.047z"/>
</g>
<g>
</g>
<g>
</g>
<g>
</g>
<g>
</g>
<g>
</g>
<g>
</g>
<g>
</g>
<g>
</g>
<g>
</g>
<g>
</g>
<g>
</g>
<g>
</g>
<g>
</g>
<g>
</g>
<g>
</g>
</svg>
